<mxfile host="app.diagrams.net" agent="Mozilla/5.0 (Windows NT 10.0; Win64; x64) AppleWebKit/537.36 (KHTML, like Gecko) Chrome/138.0.0.0 Safari/537.36 Edg/138.0.0.0" version="28.0.7">
  <diagram name="Page-1" id="7R8x7b-wNTIgwEeoARfz">
    <mxGraphModel dx="1034" dy="570" grid="1" gridSize="10" guides="1" tooltips="1" connect="1" arrows="1" fold="1" page="1" pageScale="1" pageWidth="850" pageHeight="1100" math="0" shadow="0">
      <root>
        <mxCell id="0" />
        <mxCell id="1" parent="0" />
        <mxCell id="LLwMJCaUFwVe07BwrdHM-9" value="" style="edgeStyle=orthogonalEdgeStyle;rounded=0;orthogonalLoop=1;jettySize=auto;html=1;" edge="1" parent="1" source="LLwMJCaUFwVe07BwrdHM-1" target="LLwMJCaUFwVe07BwrdHM-2">
          <mxGeometry relative="1" as="geometry" />
        </mxCell>
        <mxCell id="LLwMJCaUFwVe07BwrdHM-1" value="plan" style="ellipse;whiteSpace=wrap;html=1;fillColor=#dae8fc;strokeColor=#6c8ebf;" vertex="1" parent="1">
          <mxGeometry x="350" y="40" width="120" height="80" as="geometry" />
        </mxCell>
        <mxCell id="LLwMJCaUFwVe07BwrdHM-10" value="" style="edgeStyle=orthogonalEdgeStyle;rounded=0;orthogonalLoop=1;jettySize=auto;html=1;" edge="1" parent="1" source="LLwMJCaUFwVe07BwrdHM-2" target="LLwMJCaUFwVe07BwrdHM-3">
          <mxGeometry relative="1" as="geometry" />
        </mxCell>
        <mxCell id="LLwMJCaUFwVe07BwrdHM-2" value="develop" style="ellipse;whiteSpace=wrap;html=1;fillColor=#dae8fc;strokeColor=#6c8ebf;" vertex="1" parent="1">
          <mxGeometry x="350" y="160" width="120" height="80" as="geometry" />
        </mxCell>
        <mxCell id="LLwMJCaUFwVe07BwrdHM-11" value="" style="edgeStyle=orthogonalEdgeStyle;rounded=0;orthogonalLoop=1;jettySize=auto;html=1;" edge="1" parent="1" source="LLwMJCaUFwVe07BwrdHM-3" target="LLwMJCaUFwVe07BwrdHM-4">
          <mxGeometry relative="1" as="geometry" />
        </mxCell>
        <mxCell id="LLwMJCaUFwVe07BwrdHM-3" value="build" style="ellipse;whiteSpace=wrap;html=1;fillColor=#dae8fc;strokeColor=#6c8ebf;" vertex="1" parent="1">
          <mxGeometry x="350" y="280" width="120" height="80" as="geometry" />
        </mxCell>
        <mxCell id="LLwMJCaUFwVe07BwrdHM-12" value="" style="edgeStyle=orthogonalEdgeStyle;rounded=0;orthogonalLoop=1;jettySize=auto;html=1;" edge="1" parent="1" source="LLwMJCaUFwVe07BwrdHM-4" target="LLwMJCaUFwVe07BwrdHM-5">
          <mxGeometry relative="1" as="geometry" />
        </mxCell>
        <mxCell id="LLwMJCaUFwVe07BwrdHM-4" value="test" style="ellipse;whiteSpace=wrap;html=1;fillColor=#dae8fc;strokeColor=#6c8ebf;" vertex="1" parent="1">
          <mxGeometry x="350" y="400" width="120" height="80" as="geometry" />
        </mxCell>
        <mxCell id="LLwMJCaUFwVe07BwrdHM-13" value="" style="edgeStyle=orthogonalEdgeStyle;rounded=0;orthogonalLoop=1;jettySize=auto;html=1;" edge="1" parent="1" source="LLwMJCaUFwVe07BwrdHM-5" target="LLwMJCaUFwVe07BwrdHM-6">
          <mxGeometry relative="1" as="geometry" />
        </mxCell>
        <mxCell id="LLwMJCaUFwVe07BwrdHM-5" value="release" style="ellipse;whiteSpace=wrap;html=1;fillColor=#dae8fc;strokeColor=#6c8ebf;" vertex="1" parent="1">
          <mxGeometry x="350" y="520" width="120" height="80" as="geometry" />
        </mxCell>
        <mxCell id="LLwMJCaUFwVe07BwrdHM-14" value="" style="edgeStyle=orthogonalEdgeStyle;rounded=0;orthogonalLoop=1;jettySize=auto;html=1;" edge="1" parent="1" source="LLwMJCaUFwVe07BwrdHM-6" target="LLwMJCaUFwVe07BwrdHM-7">
          <mxGeometry relative="1" as="geometry" />
        </mxCell>
        <mxCell id="LLwMJCaUFwVe07BwrdHM-6" value="deploy" style="ellipse;whiteSpace=wrap;html=1;fillColor=#dae8fc;strokeColor=#6c8ebf;" vertex="1" parent="1">
          <mxGeometry x="350" y="640" width="120" height="80" as="geometry" />
        </mxCell>
        <mxCell id="LLwMJCaUFwVe07BwrdHM-15" value="" style="edgeStyle=orthogonalEdgeStyle;rounded=0;orthogonalLoop=1;jettySize=auto;html=1;" edge="1" parent="1" source="LLwMJCaUFwVe07BwrdHM-7" target="LLwMJCaUFwVe07BwrdHM-8">
          <mxGeometry relative="1" as="geometry" />
        </mxCell>
        <mxCell id="LLwMJCaUFwVe07BwrdHM-7" value="operate" style="ellipse;whiteSpace=wrap;html=1;fillColor=#dae8fc;strokeColor=#6c8ebf;" vertex="1" parent="1">
          <mxGeometry x="350" y="760" width="120" height="80" as="geometry" />
        </mxCell>
        <mxCell id="LLwMJCaUFwVe07BwrdHM-8" value="&lt;h5&gt;monitor&lt;/h5&gt;" style="ellipse;whiteSpace=wrap;html=1;fillColor=#dae8fc;strokeColor=#6c8ebf;" vertex="1" parent="1">
          <mxGeometry x="350" y="890" width="120" height="80" as="geometry" />
        </mxCell>
      </root>
    </mxGraphModel>
  </diagram>
</mxfile>
